<svg xmlns="http://www.w3.org/2000/svg" viewBox="0 0 32 32"><g data-name="Right arrow"><path fill="#8c9eff" d="M7,15H22.86l-3.63-4.36a1,1,0,1,1,1.54-1.28l5,6a1.19,1.19,0,0,1,.09.15c0,.05.05.08.07.13A1,1,0,0,1,26,16h0a1,1,0,0,1-.07.36c0,.05-.05.08-.07.13a1.19,1.19,0,0,1-.09.15l-5,6A1,1,0,0,1,20,23a1,1,0,0,1-.64-.23,1,1,0,0,1-.13-1.41L22.86,17H7a1,1,0,0,1,0-2Z"/><path fill="#5f7cf9" d="M25.93,16.36c0,.05-.05.08-.07.13a1.19,1.19,0,0,1-.09.15l-5,6A1,1,0,0,1,20,23a1,1,0,0,1-.64-.23,1,1,0,0,1-.13-1.41L22.86,17H7a1,1,0,0,1-1-1H26A1,1,0,0,1,25.93,16.36Z"/></g></svg>